<?xml version="1.0" encoding="UTF-8" standalone="no"?>
<!-- Created with Inkscape (http://www.inkscape.org/) -->

<svg
   width="48"
   height="48"
   viewBox="0 0 48 48"
   version="1.1"
   id="svg5"
   inkscape:version="1.2.2 (b0a8486541, 2022-12-01)"
   sodipodi:docname="purpletypuss.svg"
   inkscape:export-filename="purpletypuss.png"
   inkscape:export-xdpi="1024"
   inkscape:export-ydpi="1024"
   xmlns:inkscape="http://www.inkscape.org/namespaces/inkscape"
   xmlns:sodipodi="http://sodipodi.sourceforge.net/DTD/sodipodi-0.dtd"
   xmlns="http://www.w3.org/2000/svg"
   xmlns:svg="http://www.w3.org/2000/svg">
  <sodipodi:namedview
     id="namedview7"
     pagecolor="#ffffff"
     bordercolor="#000000"
     borderopacity="0.25"
     inkscape:showpageshadow="2"
     inkscape:pageopacity="0.0"
     inkscape:pagecheckerboard="0"
     inkscape:deskcolor="#d1d1d1"
     inkscape:document-units="px"
     showgrid="false"
     inkscape:zoom="11.313709"
     inkscape:cx="25.544232"
     inkscape:cy="16.30765"
     inkscape:window-width="1920"
     inkscape:window-height="1043"
     inkscape:window-x="0"
     inkscape:window-y="0"
     inkscape:window-maximized="1"
     inkscape:current-layer="layer1" />
  <defs
     id="defs2" />
  <g
     inkscape:label="Layer 1"
     inkscape:groupmode="layer"
     id="layer1">
    <path
       style="fill:#b300ff;fill-opacity:1;stroke:#ffffff;stroke-opacity:1"
       d="M 13.457278,32.974693 C 6.702659,32.903611 1.2290329,31.441848 1.2588148,24.274475 1.2765369,20.009419 3.244399,18.156034 7.0445092,17.369438 8.111553,6.6999863 15.532396,4.8166525 23.683111,4.7875434 c 7.407786,0.068869 16.055746,1.8744983 17.278838,12.5490386 4.294813,0.791227 5.796214,3.603276 5.779236,7.37185 -0.03061,6.793841 -6.213625,8.229489 -13.106713,8.244475 -7.02899,-0.09288 -12.415258,-0.12982 -20.177198,0.02179 z"
       id="path113"
       sodipodi:nodetypes="cscccsccc" />
    <path
       style="fill:#613c71;stroke:#ffffff;stroke-width:0.5;stroke-dasharray:none;stroke-opacity:1;fill-opacity:1"
       d="m 14.034386,33.012782 c 0.599853,5.204462 0.85845,6.121479 2.752904,7.845233 2.130288,1.604094 4.121506,2.035204 7.277966,2.093871 3.021587,0.0927 5.573765,-0.379559 7.628485,-2.315619 1.682771,-1.836824 2.374612,-2.853266 2.750055,-7.68495 -0.04773,-1.855871 0.241499,-2.919108 -0.190227,-4.405335 2.258435,-0.04901 2.414077,-1.568016 2.383758,-3.144028 -0.01387,-1.480389 -0.275124,-2.68 -3.118846,-3.078885 -2.211793,-2.240774 -4.058042,-2.552081 -9.562727,-2.528207 -6.024493,0.01544 -8.103131,0.352465 -9.738889,2.491248 -2.322222,0.428749 -2.84719,1.333125 -2.837819,3.181768 0.01775,1.880077 0.07101,3.670822 2.792914,3.679538 -0.39485,1.346182 -0.309744,2.33181 -0.137574,3.865366 z"
       id="path211"
       sodipodi:nodetypes="ccccccccccccc" />
    <path
       style="fill:#000000;fill-opacity:1;stroke:#ffffff;stroke-width:1.52585;stroke-linecap:round;stroke-dasharray:none;stroke-opacity:1"
       d="m 20.557025,36.574608 0.02496,3.381375"
       id="path3732" />
    <path
       style="fill:#000000;fill-opacity:1;stroke:#ffffff;stroke-width:1.52585;stroke-linecap:round;stroke-dasharray:none;stroke-opacity:1"
       d="m 27.437324,36.619021 0.02496,3.381376"
       id="path3732-3" />
    <g
       id="g9828"
       transform="translate(-0.3854906,-8)">
      <g
         id="g9790"
         transform="translate(0.45158817,7.9260788)">
        <ellipse
           style="fill:#d573ff;fill-opacity:1;stroke:none;stroke-width:0.64334;stroke-dasharray:none;stroke-opacity:1"
           id="path2595"
           cx="13.08699"
           cy="16.073921"
           rx="3.6738057"
           ry="3.0074627" />
        <circle
           style="fill:#000000;fill-opacity:1;stroke:none;stroke-width:1.28753;stroke-dasharray:none;stroke-opacity:1"
           id="path2649"
           cx="13.107819"
           cy="16.155169"
           r="1.424263" />
      </g>
      <g
         id="g9786"
         transform="translate(3.7661513,6.6758842)">
        <ellipse
           style="fill:#d573ff;fill-opacity:1;stroke:none;stroke-width:0.64334;stroke-dasharray:none;stroke-opacity:1"
           id="path2595-5"
           cx="31.466251"
           cy="17.324116"
           rx="3.6738057"
           ry="3.0074627" />
        <circle
           style="fill:#000000;fill-opacity:1;stroke:none;stroke-width:1.28753;stroke-dasharray:none;stroke-opacity:1"
           id="path2649-6"
           cx="31.48708"
           cy="17.405363"
           r="1.424263" />
      </g>
    </g>
  </g>
</svg>
